<svg width="448.3" height="97.2" viewBox="0 0 448.3 97.2" xmlns="http://www.w3.org/2000/svg"><g id="svgGroup" stroke-linecap="round" fill-rule="evenodd" font-size="9pt" stroke="#000" stroke-width="0.25mm" fill="#000" style="stroke:#000;stroke-width:0.25mm;fill:#000"><path d="M 318.5 92.8 L 321.8 85 A 20.562 20.562 0 0 0 325.617 87.373 A 24.737 24.737 0 0 0 327.4 88.15 Q 330.159 89.228 333.959 89.376 A 31.788 31.788 0 0 0 335.2 89.4 A 21.701 21.701 0 0 0 339.721 88.957 Q 342.622 88.339 344.822 86.859 A 12.576 12.576 0 0 0 346.35 85.65 A 11.352 11.352 0 0 0 349.257 81.157 Q 350.4 78.056 350.4 73.7 L 350.4 67.3 Q 348.4 69.7 344.65 71.85 Q 340.9 74 335.7 74 Q 329.8 74 324.5 70.95 A 22.236 22.236 0 0 1 317.208 64.112 A 27.437 27.437 0 0 1 315.9 62 A 25.181 25.181 0 0 1 313.187 54.376 A 35.033 35.033 0 0 1 312.6 47.8 A 32.06 32.06 0 0 1 313.517 39.992 A 26.682 26.682 0 0 1 315.85 33.9 A 25.706 25.706 0 0 1 321.914 26.278 A 24.448 24.448 0 0 1 324.6 24.3 Q 330.1 20.8 336.7 20.8 A 22.366 22.366 0 0 1 341.52 21.301 A 18.715 18.715 0 0 1 344.7 22.3 A 25.705 25.705 0 0 1 348.528 24.268 A 20.998 20.998 0 0 1 350.9 26 L 350.9 22 L 359.1 22 L 359.1 72.8 Q 359.1 81.4 356.1 86.8 Q 353.1 92.2 347.75 94.7 A 25.811 25.811 0 0 1 341.146 96.721 A 35.243 35.243 0 0 1 335.2 97.2 Q 330.6 97.2 326.25 96.1 A 27.232 27.232 0 0 1 320.95 94.183 A 23.518 23.518 0 0 1 318.5 92.8 Z M 265.9 74 L 256.9 74 L 256.9 22 L 265.6 22 L 265.6 30.7 Q 268.4 26.5 272.75 23.65 A 17.316 17.316 0 0 1 279.856 21.025 A 22.629 22.629 0 0 1 283.1 20.8 A 23.225 23.225 0 0 1 288.165 21.318 Q 293.259 22.456 296.25 26.1 Q 300.375 31.126 300.588 39.209 A 33.764 33.764 0 0 1 300.6 40.1 L 300.6 74 L 291.6 74 L 291.6 41.1 A 19.265 19.265 0 0 0 291.258 37.359 Q 290.819 35.145 289.819 33.397 A 10.966 10.966 0 0 0 288.95 32.1 A 8.579 8.579 0 0 0 282.673 28.747 A 12.061 12.061 0 0 0 281.6 28.7 A 13.122 13.122 0 0 0 274.751 30.664 A 17.353 17.353 0 0 0 272.9 31.95 Q 268.8 35.2 265.9 39.6 L 265.9 74 Z M 205 27.2 L 205 0 L 214 0 L 214 61.4 A 12.15 12.15 0 0 0 214.102 63.036 Q 214.434 65.47 215.85 66.35 Q 217.7 67.5 219.9 67.5 L 218 74.5 Q 208.5 74.5 206.4 66.9 Q 204.2 70 200.25 72.6 Q 196.3 75.2 190.3 75.2 Q 183.9 75.2 178.6 71.9 A 22.692 22.692 0 0 1 171.062 64.109 A 27.622 27.622 0 0 1 170.2 62.55 A 27.533 27.533 0 0 1 167.612 54.608 A 37.221 37.221 0 0 1 167.1 48.3 A 33.94 33.94 0 0 1 167.989 40.386 A 27.963 27.963 0 0 1 170.25 34.2 A 27.291 27.291 0 0 1 174.869 27.609 A 24.186 24.186 0 0 1 178.65 24.4 Q 183.9 20.8 190.2 20.8 A 21.642 21.642 0 0 1 194.472 21.202 A 15.942 15.942 0 0 1 199.15 22.9 A 34.343 34.343 0 0 1 201.73 24.489 Q 202.954 25.324 203.925 26.174 A 16.59 16.59 0 0 1 205 27.2 Z M 41.6 74 L 0 74 L 0 4 L 9.5 4 L 9.5 65.5 L 41.6 65.5 L 41.6 74 Z M 145.5 26.2 L 145.5 22 L 153.7 22 L 153.7 61.4 A 12.15 12.15 0 0 0 153.802 63.036 Q 154.134 65.47 155.55 66.35 Q 157.4 67.5 159.6 67.5 L 157.7 74.5 A 17.722 17.722 0 0 1 153.435 74.028 Q 147.798 72.628 146.203 67.08 A 13.59 13.59 0 0 1 146.1 66.7 A 21.307 21.307 0 0 1 142.99 70.126 A 28.498 28.498 0 0 1 139.85 72.55 Q 135.9 75.2 129.8 75.2 Q 123.3 75.2 118 71.9 A 22.947 22.947 0 0 1 110.587 64.373 A 27.923 27.923 0 0 1 109.55 62.55 A 27.228 27.228 0 0 1 106.92 54.608 A 36.644 36.644 0 0 1 106.4 48.3 A 33.142 33.142 0 0 1 107.397 40.031 A 27.968 27.968 0 0 1 109.55 34.3 Q 112.7 28.1 118.25 24.45 A 22.297 22.297 0 0 1 129.445 20.844 A 27.388 27.388 0 0 1 131 20.8 A 22.584 22.584 0 0 1 135.794 21.29 A 18.703 18.703 0 0 1 139.15 22.35 A 26.002 26.002 0 0 1 143.437 24.644 A 22.103 22.103 0 0 1 145.5 26.2 Z M 58.7 71.75 A 24.559 24.559 0 0 0 63.298 73.84 Q 67.353 75.2 72 75.2 Q 79.4 75.2 85.25 71.8 Q 91.1 68.4 94.5 62.25 A 26.255 26.255 0 0 0 97.153 55.109 A 34.184 34.184 0 0 0 97.9 47.8 A 34.542 34.542 0 0 0 97.415 41.891 A 25.795 25.795 0 0 0 94.45 33.45 Q 91 27.4 85.15 24.1 A 24.848 24.848 0 0 0 80.509 22.073 A 27.738 27.738 0 0 0 72 20.8 A 31.325 31.325 0 0 0 70.42 20.839 A 26.169 26.169 0 0 0 58.8 24.1 Q 52.9 27.4 49.5 33.5 A 26.023 26.023 0 0 0 46.751 41.09 A 35.006 35.006 0 0 0 46.1 48 A 34.82 34.82 0 0 0 46.365 52.354 A 27.451 27.451 0 0 0 49.45 62.15 Q 52.8 68.3 58.7 71.75 Z M 240.9 74 L 231.9 74 L 231.9 22 L 240.9 22 L 240.9 74 Z M 72 67.2 Q 79.9 67.2 84.3 61.85 A 18.802 18.802 0 0 0 88.119 53.76 A 27.105 27.105 0 0 0 88.7 48 Q 88.7 42.8 86.5 38.45 A 19.198 19.198 0 0 0 82.328 32.881 A 18.17 18.17 0 0 0 80.55 31.45 Q 76.8 28.8 72 28.8 A 19.249 19.249 0 0 0 66.774 29.472 A 14.037 14.037 0 0 0 59.7 34 A 17.878 17.878 0 0 0 56.026 41.374 Q 55.3 44.306 55.3 47.8 Q 55.3 53 57.5 57.45 A 19.437 19.437 0 0 0 61.03 62.49 A 17.627 17.627 0 0 0 63.45 64.55 Q 67.2 67.2 72 67.2 Z M 144.7 60.7 L 144.7 32.8 Q 142 30.9 138.75 29.75 Q 135.5 28.6 131.9 28.6 A 15.924 15.924 0 0 0 126.929 29.354 A 14.024 14.024 0 0 0 123.45 31.05 A 16.301 16.301 0 0 0 118.431 36.474 A 19.962 19.962 0 0 0 117.7 37.85 A 20.663 20.663 0 0 0 115.947 43.527 A 27.678 27.678 0 0 0 115.6 48 Q 115.6 53.6 117.7 57.95 A 17.602 17.602 0 0 0 120.806 62.496 A 15.697 15.697 0 0 0 123.5 64.75 Q 127.2 67.2 131.8 67.2 Q 135.6 67.2 139 65.35 Q 142.4 63.5 144.7 60.7 Z M 205 60.9 L 205 35.1 A 15.847 15.847 0 0 0 202.889 32.927 Q 201.768 31.964 200.369 31.066 A 28.139 28.139 0 0 0 199.7 30.65 Q 196.3 28.6 192.2 28.6 A 14.946 14.946 0 0 0 187.244 29.4 A 13.385 13.385 0 0 0 183.8 31.2 A 16.69 16.69 0 0 0 178.63 37.35 A 19.924 19.924 0 0 0 178.25 38.15 A 22.19 22.19 0 0 0 176.51 44.514 A 28.113 28.113 0 0 0 176.3 48 A 24.757 24.757 0 0 0 176.893 53.519 A 20.327 20.327 0 0 0 178.4 57.85 A 18.205 18.205 0 0 0 181.44 62.363 A 16.122 16.122 0 0 0 184.15 64.7 Q 187.8 67.2 192.3 67.2 Q 196 67.2 199.35 65.45 Q 202.7 63.7 205 60.9 Z M 350.1 60 L 350.1 32.8 Q 347.934 31.225 344.897 29.941 A 36.018 36.018 0 0 0 344.8 29.9 A 16.249 16.249 0 0 0 340.996 28.849 A 22.135 22.135 0 0 0 337.6 28.6 Q 333.5 28.6 329.9 30.8 Q 326.3 33 324.05 37.15 Q 321.8 41.3 321.8 47.3 A 24.32 24.32 0 0 0 322.278 52.236 A 18.311 18.311 0 0 0 324.05 57.2 A 18.576 18.576 0 0 0 326.961 61.275 A 15.802 15.802 0 0 0 329.9 63.7 Q 333.5 66 337.7 66 A 15.276 15.276 0 0 0 342.278 65.332 A 13.606 13.606 0 0 0 344.9 64.2 A 20.855 20.855 0 0 0 347.881 62.184 A 16.309 16.309 0 0 0 350.1 60 Z M 376.963 73.262 A 6.418 6.418 0 0 0 381.6 75.2 A 8.605 8.605 0 0 0 382.222 75.178 A 6.461 6.461 0 0 0 386.4 73.35 Q 388.3 71.5 388.3 68.5 A 6.225 6.225 0 0 0 387.721 65.829 A 6.955 6.955 0 0 0 386.25 63.8 A 8.478 8.478 0 0 0 385.729 63.331 A 6.325 6.325 0 0 0 381.6 61.8 A 8.813 8.813 0 0 0 379.747 61.985 A 5.979 5.979 0 0 0 376.7 63.6 A 5.927 5.927 0 0 0 375.132 66.44 A 8.624 8.624 0 0 0 374.9 68.5 Q 374.9 71.2 376.9 73.2 A 8.317 8.317 0 0 0 376.963 73.262 Z M 406.963 73.262 A 6.418 6.418 0 0 0 411.6 75.2 A 8.605 8.605 0 0 0 412.222 75.178 A 6.461 6.461 0 0 0 416.4 73.35 Q 418.3 71.5 418.3 68.5 A 6.225 6.225 0 0 0 417.721 65.829 A 6.955 6.955 0 0 0 416.25 63.8 A 8.478 8.478 0 0 0 415.729 63.331 A 6.325 6.325 0 0 0 411.6 61.8 A 8.813 8.813 0 0 0 409.747 61.985 A 5.979 5.979 0 0 0 406.7 63.6 A 5.927 5.927 0 0 0 405.132 66.44 A 8.624 8.624 0 0 0 404.9 68.5 Q 404.9 71.2 406.9 73.2 A 8.317 8.317 0 0 0 406.963 73.262 Z M 436.963 73.262 A 6.418 6.418 0 0 0 441.6 75.2 A 8.605 8.605 0 0 0 442.222 75.178 A 6.461 6.461 0 0 0 446.4 73.35 Q 448.3 71.5 448.3 68.5 A 6.225 6.225 0 0 0 447.721 65.829 A 6.955 6.955 0 0 0 446.25 63.8 A 8.478 8.478 0 0 0 445.729 63.331 A 6.325 6.325 0 0 0 441.6 61.8 A 8.813 8.813 0 0 0 439.747 61.985 A 5.979 5.979 0 0 0 436.7 63.6 A 5.927 5.927 0 0 0 435.132 66.44 A 8.624 8.624 0 0 0 434.9 68.5 Q 434.9 71.2 436.9 73.2 A 8.317 8.317 0 0 0 436.963 73.262 Z M 232.037 11.288 A 5.973 5.973 0 0 0 236.4 13.1 A 8.175 8.175 0 0 0 237.896 12.969 A 5.647 5.647 0 0 0 241 11.35 Q 242.7 9.6 242.7 6.8 A 7.26 7.26 0 0 0 242.7 6.719 A 6.06 6.06 0 0 0 240.85 2.35 A 7.395 7.395 0 0 0 240.792 2.293 A 6.059 6.059 0 0 0 236.4 0.5 A 8.264 8.264 0 0 0 234.744 0.658 A 5.661 5.661 0 0 0 231.8 2.2 A 5.588 5.588 0 0 0 230.329 4.832 A 7.987 7.987 0 0 0 230.1 6.8 A 5.992 5.992 0 0 0 230.592 9.219 A 6.643 6.643 0 0 0 231.95 11.2 A 7.466 7.466 0 0 0 232.037 11.288 Z" vector-effect="non-scaling-stroke"/></g></svg>