<?xml version="1.0" encoding="UTF-8"?>
<svg xmlns="http://www.w3.org/2000/svg" xmlns:xlink="http://www.w3.org/1999/xlink" width="50" height="50" viewBox="0 0 50 50" version="1.1">
<g id="surface1">
<path style=" stroke:none;fill-rule:nonzero;fill:rgb(0%,0%,0%);fill-opacity:1;" d="M 9.039062 35.058594 C 10.679688 35.058594 11.234375 34.179688 11.902344 33.511719 C 13.265625 32.144531 14.941406 32.726562 14.941406 34.933594 L 14.941406 45.117188 L 25.125 45.117188 C 27.332031 45.117188 27.914062 43.441406 26.546875 42.078125 C 25.878906 41.410156 25 40.855469 25 39.214844 C 25 37.390625 26.859375 35.058594 30.03125 35.058594 C 33.199219 35.058594 35.058594 37.390625 35.058594 39.214844 C 35.058594 40.855469 34.179688 41.410156 33.511719 42.078125 C 32.144531 43.441406 32.726562 45.117188 34.933594 45.117188 L 45.117188 45.117188 L 45.117188 34.933594 C 45.117188 32.726562 43.441406 32.144531 42.078125 33.511719 C 41.410156 34.179688 40.855469 35.058594 39.214844 35.058594 C 37.390625 35.058594 35.058594 33.199219 35.058594 30.03125 C 35.058594 26.859375 37.390625 25 39.214844 25 C 40.855469 25 41.410156 25.878906 42.078125 26.546875 C 43.441406 27.914062 45.117188 27.332031 45.117188 25.125 L 45.117188 14.941406 L 34.933594 14.941406 C 32.726562 14.941406 32.144531 13.265625 33.511719 11.902344 C 34.179688 11.234375 35.058594 10.679688 35.058594 9.039062 C 35.058594 7.214844 33.199219 4.882812 30.03125 4.882812 C 26.859375 4.882812 25 7.214844 25 9.039062 C 25 10.679688 25.878906 11.234375 26.546875 11.902344 C 27.914062 13.265625 27.332031 14.941406 25.125 14.941406 L 14.941406 14.941406 L 14.941406 25.125 C 14.941406 27.332031 13.265625 27.914062 11.902344 26.546875 C 11.234375 25.878906 10.679688 25 9.039062 25 C 7.214844 25 4.882812 26.859375 4.882812 30.03125 C 4.882812 33.199219 7.214844 35.058594 9.039062 35.058594 Z M 9.039062 35.058594 "/>
</g>
</svg>
