<svg width="40" height="40" viewBox="0 0 40 40" fill="none" xmlns="http://www.w3.org/2000/svg">
<path d="M21.6762 1.10113C21.5201 0.77009 21.2808 0.49183 20.985 0.297395C20.6892 0.102961 20.3486 0 20.0011 0C19.6537 0 19.3131 0.102961 19.0173 0.297395C18.7215 0.49183 18.4822 0.77009 18.3261 1.10113L13.1659 12.0177L1.6104 13.7829C1.26196 13.8359 0.934531 13.9924 0.665574 14.2345C0.396618 14.4767 0.196992 14.7947 0.0895313 15.1521C-0.0179296 15.5096 -0.0288866 15.8921 0.0579136 16.2559C0.144714 16.6197 0.325766 16.9501 0.580362 17.2093L8.91819 25.6887L6.95312 37.6558C6.89303 38.0225 6.93008 38.3997 7.06009 38.7452C7.1901 39.0906 7.40792 39.3905 7.68904 39.611C7.97016 39.8316 8.30341 39.9641 8.6513 39.9937C8.99919 40.0232 9.34791 39.9487 9.65822 39.7783L20.0011 34.0987L30.3441 39.7783C30.6544 39.9487 31.0031 40.0232 31.351 39.9937C31.6989 39.9641 32.0321 39.8316 32.3132 39.611C32.5944 39.3905 32.8122 39.0906 32.9422 38.7452C33.0722 38.3997 33.1092 38.0225 33.0492 37.6558L31.0841 25.686L39.4219 17.2066C39.6758 16.9473 39.8562 16.6171 39.9425 16.2537C40.0289 15.8903 40.0177 15.5083 39.9103 15.1514C39.8029 14.7944 39.6036 14.4768 39.3351 14.2348C39.0667 13.9929 38.7398 13.8363 38.3919 13.7829L26.8364 12.0177L21.6762 1.10113Z" fill="black"/>
</svg>
