<svg width="122" height="93" viewBox="0 0 122 93" fill="none" xmlns="http://www.w3.org/2000/svg">
<g clip-path="url(#clip0_405_32)">
<path d="M21.3333 69H2.66669C1.19987 69 0 70.1999 0 71.6667V90.3333C0 91.8001 1.19987 93 2.66669 93H21.3333C22.8001 93 24 91.8001 24 90.3333V71.6667C24 70.1999 22.8001 69 21.3333 69Z" fill="#98DBFF"/>
<path d="M53.3333 69H34.6667C33.1999 69 32 70.1999 32 71.6667V90.3333C32 91.8001 33.1999 93 34.6667 93H53.3333C54.8001 93 56 91.8001 56 90.3333V71.6667C56 70.1999 54.8001 69 53.3333 69Z" fill="#98DBFF"/>
<path d="M85.3333 69H66.6667C65.1999 69 64 70.1999 64 71.6667V90.3333C64 91.8001 65.1999 93 66.6667 93H85.3333C86.8001 93 88 91.8001 88 90.3333V71.6667C88 70.1999 86.8001 69 85.3333 69Z" fill="#98DBFF"/>
<path d="M119.333 69H100.667C99.1999 69 98 70.1999 98 71.6667V90.3333C98 91.8001 99.1999 93 100.667 93H119.333C120.8 93 122 91.8001 122 90.3333V71.6667C122 70.1999 120.8 69 119.333 69Z" fill="#98DBFF"/>
<path d="M28 43.6667C20.6267 43.6667 14.6667 49.6267 14.6667 57C14.6667 64.3733 20.6267 70.3333 28 70.3333C35.3733 70.3333 41.3333 64.3733 41.3333 57C41.3333 49.6267 35.3733 43.6667 28 43.6667Z" fill="#AEFF93"/>
<path d="M60 43.6667C52.6267 43.6667 46.6667 49.6267 46.6667 57C46.6667 64.3733 52.6267 70.3333 60 70.3333C67.3733 70.3333 73.3333 64.3733 73.3333 57C73.3333 49.6267 67.3733 43.6667 60 43.6667Z" fill="#AEFF93"/>
<path d="M92 43.6667C84.6267 43.6667 78.6667 49.6267 78.6667 57C78.6667 64.3733 84.6267 70.3333 92 70.3333C99.3733 70.3333 105.333 64.3733 105.333 57C105.333 49.6267 99.3733 43.6667 92 43.6667Z" fill="#AEFF93"/>
<path d="M41.374 20.554C41.6328 20.0831 42.0133 19.6904 42.4758 19.4169C42.9383 19.1434 43.4657 18.9991 44.003 18.9991C44.5403 18.9991 45.0677 19.1434 45.5302 19.4169C45.9927 19.6904 46.3732 20.0831 46.632 20.554L57.63 40.552C57.8813 41.0088 58.0092 41.5231 58.0011 42.0444C57.9931 42.5656 57.8493 43.0758 57.5841 43.5245C57.3188 43.9733 56.9412 44.3452 56.4884 44.6036C56.0356 44.862 55.5233 44.9979 55.002 44.998H33.004C32.4827 44.9979 31.9704 44.862 31.5176 44.6036C31.0648 44.3452 30.6872 43.9733 30.4219 43.5245C30.1567 43.0758 30.0129 42.5656 30.0049 42.0444C29.9968 41.5231 30.1247 41.0088 30.376 40.552L41.374 20.554Z" fill="#FFFF76"/>
<path d="M73.374 20.554C73.6328 20.0831 74.0133 19.6904 74.4758 19.4169C74.9383 19.1434 75.4657 18.9991 76.003 18.9991C76.5403 18.9991 77.0677 19.1434 77.5302 19.4169C77.9927 19.6904 78.3732 20.0831 78.632 20.554L89.63 40.552C89.8813 41.0088 90.0092 41.5231 90.0011 42.0444C89.9931 42.5656 89.8493 43.0758 89.5841 43.5245C89.3188 43.9733 88.9412 44.3452 88.4884 44.6036C88.0356 44.862 87.5233 44.9979 87.002 44.998H65.004C64.4827 44.9979 63.9704 44.862 63.5176 44.6036C63.0648 44.3452 62.6872 43.9733 62.4219 43.5245C62.1567 43.0758 62.0129 42.5656 62.0049 42.0444C61.9968 41.5231 62.1247 41.0088 62.376 40.552L73.374 20.554Z" fill="#FFFF76"/>
<path d="M70.6667 25.6667C70.6667 26.0203 70.5262 26.3594 70.2761 26.6095C70.0261 26.8595 69.687 27 69.3333 27H50.6667C50.313 27 49.9739 26.8595 49.7239 26.6095C49.4738 26.3594 49.3333 26.0203 49.3333 25.6667V13.6667H45.3333L59.1027 1.14933C59.3481 0.925965 59.6681 0.802185 60 0.802185C60.3319 0.802185 60.6518 0.925965 60.8973 1.14933L74.6667 13.6667H70.6667V25.6667Z" fill="#FFC671"/>
</g>
<defs>
<clipPath id="clip0_405_32">
<rect width="122" height="93" fill="white"/>
</clipPath>
</defs>
</svg>
